<svg width="26" height="26" viewBox="0 0 26 26" fill="none" xmlns="http://www.w3.org/2000/svg">
<g clip-path="url(#clip0_111_1623)">
<path d="M25.9722 7.85007C25.9136 6.52172 25.6988 5.6085 25.3911 4.81717C25.0736 3.9772 24.5852 3.22518 23.9454 2.60002C23.3202 1.96513 22.5632 1.47179 21.733 1.15931C20.9371 0.851593 20.0286 0.636784 18.7003 0.578217C17.362 0.514689 16.9372 0.5 13.543 0.5C10.1488 0.5 9.7239 0.514689 8.3906 0.573257C7.06225 0.631824 6.14902 0.846824 5.35789 1.15435C4.51773 1.47179 3.76571 1.96017 3.14055 2.60002C2.50566 3.22518 2.01251 3.98216 1.69984 4.8124C1.39212 5.6085 1.17731 6.51676 1.11874 7.84511C1.05522 9.18338 1.04053 9.60823 1.04053 13.0024C1.04053 16.3967 1.05522 16.8215 1.11378 18.1548C1.17235 19.4832 1.38735 20.3964 1.69507 21.1877C2.01251 22.0277 2.50566 22.7797 3.14055 23.4049C3.76571 24.0398 4.52269 24.5331 5.35293 24.8456C6.14902 25.1533 7.05729 25.3681 8.38583 25.4267C9.71894 25.4854 10.144 25.4999 13.5382 25.4999C16.9324 25.4999 17.3573 25.4854 18.6906 25.4267C20.0189 25.3681 20.9321 25.1533 21.7233 24.8456C23.4034 24.196 24.7318 22.8677 25.3813 21.1877C25.6889 20.3916 25.9039 19.4832 25.9624 18.1548C26.021 16.8215 26.0357 16.3967 26.0357 13.0024C26.0357 9.60823 26.0307 9.18338 25.9722 7.85007ZM23.7209 18.0571C23.6671 19.2781 23.462 19.9374 23.291 20.3769C22.871 21.4661 22.0066 22.3304 20.9175 22.7505C20.4779 22.9215 19.8138 23.1265 18.5977 23.1801C17.279 23.2389 16.8836 23.2534 13.5479 23.2534C10.2123 23.2534 9.81185 23.2389 8.498 23.1801C7.27706 23.1265 6.61775 22.9215 6.17821 22.7505C5.63623 22.5502 5.14289 22.2328 4.74246 21.8176C4.32734 21.4123 4.0099 20.9239 3.80958 20.3819C3.63865 19.9424 3.43357 19.2781 3.37997 18.0621C3.32121 16.7435 3.30671 16.3478 3.30671 13.0122C3.30671 9.67652 3.32121 9.27609 3.37997 7.96243C3.43357 6.74149 3.63865 6.08218 3.80958 5.64264C4.0099 5.10047 4.32734 4.60732 4.74742 4.2067C5.15262 3.79158 5.641 3.47414 6.18317 3.27402C6.62271 3.10309 7.28698 2.89801 8.50296 2.84421C9.82158 2.78564 10.2172 2.77095 13.5527 2.77095C16.8933 2.77095 17.2888 2.78564 18.6026 2.84421C19.8236 2.89801 20.4829 3.10309 20.9224 3.27402C21.4644 3.47414 21.9577 3.79158 22.3582 4.2067C22.7733 4.61209 23.0907 5.10047 23.291 5.64264C23.462 6.08218 23.6671 6.74626 23.7209 7.96243C23.7794 9.28105 23.7941 9.67652 23.7941 13.0122C23.7941 16.3478 23.7794 16.7385 23.7209 18.0571Z" fill="white"/>
<path d="M13.5423 6.58032C9.99677 6.58032 7.12012 9.45679 7.12012 13.0025C7.12012 16.5482 9.99677 19.4246 13.5423 19.4246C17.088 19.4246 19.9644 16.5482 19.9644 13.0025C19.9644 9.45679 17.088 6.58032 13.5423 6.58032ZM13.5423 17.1684C11.2421 17.1684 9.37638 15.3028 9.37638 13.0025C9.37638 10.7021 11.2421 8.83659 13.5423 8.83659C15.8426 8.83659 17.7082 10.7021 17.7082 13.0025C17.7082 15.3028 15.8426 17.1684 13.5423 17.1684V17.1684Z" fill="white"/>
<path d="M21.718 6.32643C21.718 7.15438 21.0467 7.82571 20.2185 7.82571C19.3906 7.82571 18.7192 7.15438 18.7192 6.32643C18.7192 5.49828 19.3906 4.82715 20.2185 4.82715C21.0467 4.82715 21.718 5.49828 21.718 6.32643Z" fill="white"/>
</g>
<defs>
<clipPath id="clip0_111_1623">
<rect width="25" height="25" fill="white" transform="translate(0.996094 0.5)"/>
</clipPath>
</defs>
</svg>
