<svg width="28" height="16" viewBox="0 0 28 16" fill="none" xmlns="http://www.w3.org/2000/svg">
<path d="M26.4893 1.24695C26.6691 0.636597 26.4893 0.187378 25.624 0.187378H22.7608C22.0316 0.187378 21.6962 0.57312 21.5164 1.00281C21.5164 1.00281 20.058 4.57214 17.9969 6.8866C17.3309 7.55554 17.0247 7.77039 16.6601 7.77039C16.4803 7.77039 16.2032 7.55554 16.2032 6.94519V1.24695C16.2032 0.514526 15.999 0.187378 15.3962 0.187378H10.8948C10.4379 0.187378 10.1657 0.529175 10.1657 0.846558C10.1657 1.53992 11.1962 1.70105 11.3032 3.65417V7.89246C11.3032 8.82019 11.1379 8.99109 10.7733 8.99109C9.80109 8.99109 7.43859 5.4071 6.03859 1.30554C5.75664 0.509644 5.47956 0.187378 4.74553 0.187378H1.88234C1.06567 0.187378 0.900391 0.57312 0.900391 1.00281C0.900391 1.76453 1.87261 5.54871 5.42609 10.5487C7.79345 13.9618 11.1282 15.8124 14.1615 15.8124C15.9844 15.8124 16.208 15.4022 16.208 14.6942C16.208 11.4325 16.0428 11.1249 16.9566 11.1249C17.3796 11.1249 18.1087 11.3397 19.8101 12.9852C21.7546 14.9384 22.0754 15.8124 23.1643 15.8124H26.0275C26.8441 15.8124 27.2573 15.4022 27.0191 14.5917C26.4747 12.8876 22.7948 9.38171 22.6296 9.14734C22.2066 8.60046 22.3282 8.35632 22.6296 7.86804C22.6344 7.86316 26.1296 2.92175 26.4893 1.24695Z" fill="white"/>
</svg>
